<svg width="142" height="40" xmlns="http://www.w3.org/2000/svg">
  <path d="M.348 14.628c.102.613 3.47.219 3.616.204h.305c.798 0 1.205.35 1.205 1.051 0 1.051-.044 2.628-.116 4.745-.073 2.102-.116 3.679-.116 4.73 0 3.518 2.28 5.27 6.853 5.27 2.483 0 4.007-.57 6.04-1.694 0 0 .682-.481.784-.54.348-.263.32-1.168.32-1.62 0-.453.043-1.168-.015-2.059-.058-.978 0-1.007 0-1.489 0-.35-.16-.525-.494-.525-.305 0-.813.102-1.554.277a4.768 4.768 0 0 1-1.147.131c-1.248 0-1.713-.204-2.148-.89-.305-.511-.45-1.43-.45-2.774 0-.365-.015-.934-.03-1.693v-1.694c0-.7.117-1.036.363-1.036l1.786-.19c.32 0 .842.015 1.583.03.74.029.9.043 1.22.043.45 0 .595-.175.682-.496.145-.482.087-.789.087-1.358 0-.73.102-1.489.102-1.869 0-.364-.044-.73-.102-1.46-.043-.744-.043-.364-.043-.744 0-.89-.494-.832-.755-.876-.567-.087-.654-.044-1.786-.058-1.118-.03-1.844-.19-2.512-.292-.45-.073-.683-.394-.683-1.168 0-.642.058-1.62.16-2.905.102-1.285.145-2.248.145-2.89 0-.249-.188-.38-.595-.41C11.369.293 10.469.308 9.612.25 9.263.218 8.45.188 7.522.13 6.707.073 6.126.03 5.691.03c-.349 0-.523.92-.523 2.76 0-.103.029.145.102 2.19.029 1.313.101 1.386 0 2-.044.306-.45.948-1.017.977-1.016.03-3.572.117-3.804.584.03-.03-.74 2.482-.102 6.088m95.974 4.175c0 1.139.058 2.832.203 5.08.13 2.248.203 3.942.203 5.066 0 .598-.26 1.255-.77 1.3a88.19 88.19 0 0 1-6.271.204c-.29 0-.29-.818-.567-1.62-.203-.629-.363-.556-.363-.556s-.247-.043-.435.146c-1.656 1.68-3.412 2-5.3 2-2.875 0-5.256-1.138-7.143-3.416-1.786-2.131-2.672-4.686-2.672-7.65 0-3.415.915-6.175 2.759-8.262 1.916-2.16 4.544-3.212 7.87-3.241 1.872-.015 3.12.044 5.473.964 0 0 .508.248.624-.176.175-.715.116-.803.349-.817.537-.059.9-.073 2.86-.044 0 0 3.252.044 3.659.146.232.058.334.204.334.35 0 .059-.015.22-.073.468-.508 2.686-.74 7.065-.74 10.058m-7.115.131c0-1.255-.392-2.306-1.176-3.124-.784-.817-1.815-1.24-3.078-1.24s-2.294.408-3.078 1.226c-.784.817-1.176 1.854-1.176 3.138 0 1.197.407 2.234 1.234 3.08.828.862 1.83 1.285 3.006 1.285 1.248 0 2.28-.408 3.078-1.226.784-.818 1.19-1.854 1.19-3.139m51.922-.131c0 1.139.058 2.832.203 5.08.13 2.248.203 3.942.203 5.066 0 .598-.261 1.255-.77 1.3a88.19 88.19 0 0 1-6.272.204c-.29 0-.29-.818-.566-1.62-.203-.629-.363-.556-.363-.556s-.247-.043-.435.146c-1.656 1.68-3.412 2-5.3 2-2.875 0-5.256-1.138-7.144-3.416-1.785-2.131-2.671-4.686-2.671-7.65 0-3.415.915-6.175 2.759-8.262 1.916-2.16 4.544-3.212 7.87-3.241 1.872-.015 3.12.044 5.473.964 0 0 .508.248.624-.176.175-.715.116-.803.349-.817.537-.059.9-.073 2.86-.044 0 0 3.252.044 3.659.146.232.058.334.204.334.35 0 .059-.015.22-.073.468-.493 2.686-.74 7.065-.74 10.058m-7.115.131c0-1.255-.392-2.306-1.176-3.124-.784-.817-1.815-1.24-3.078-1.24s-2.294.408-3.078 1.226c-.784.817-1.176 1.854-1.176 3.138 0 1.197.406 2.234 1.234 3.08.828.862 1.83 1.285 3.006 1.285 1.248 0 2.28-.408 3.078-1.226.798-.818 1.19-1.854 1.19-3.139m-89.294-.131c0 1.139.058 2.832.203 5.08.13 2.248.203 3.942.203 5.066 0 .598-.261 1.255-.77 1.3a88.19 88.19 0 0 1-6.272.204c-.275 0-.29-.818-.566-1.62-.203-.629-.363-.556-.363-.556s-.247-.043-.435.146c-1.656 1.68-3.412 2-5.3 2-2.875 0-5.256-1.138-7.144-3.416-1.785-2.131-2.671-4.686-2.671-7.65 0-3.415.93-6.175 2.759-8.262 1.916-2.16 4.544-3.212 7.87-3.241 1.872-.015 3.106.044 5.473.964 0 0 .508.248.624-.176.175-.715.116-.803.349-.817.537-.059.9-.073 2.86-.044 0 0 3.252.044 3.659.146.232.058.334.204.334.35 0 .059-.03.22-.073.468-.508 2.686-.74 7.065-.74 10.058m-7.13.131c0-1.255-.391-2.306-1.175-3.124-.784-.817-1.815-1.24-3.078-1.24-1.264 0-2.294.408-3.079 1.226-.784.817-1.176 1.854-1.176 3.138 0 1.197.407 2.234 1.235 3.08.827.862 1.829 1.285 3.005 1.285 1.249 0 2.28-.408 3.078-1.226.799-.818 1.19-1.854 1.19-3.139m33.308-5.722c.19 2.496-.929 5.576-.929 5.576s-.653 2.672-4.181 7.708c-5.053 7.212-8.262 10.088-8.262 10.088s-2.802 2.423-6.2 3.358c-.61.16-.552-.088-.77-.234-.522-.35-1.96-3.124-2.25-3.956-.232-.526-.464-.934-.639-1.49-.16-.554.073-.831.32-.919 7.201-2.73 6.635-5.606 6.635-5.606-.029-.628-.668-1.635-2.671-4.423-2.077-2.861-2.89-4.117-3.253-5.416-.116-.424-.566-2.19-.348-4.599.043-.525.014-1.328.043-2.408.03-1.066.044-1.884.044-2.41 0-.379.247-.583.726-.583.755 0 1.887.029 3.412.073 1.524.044 2.671.073 3.412.073.305 0 .465.233.465.686 0 .409-.015 1.036-.073 1.883-.044.832-.073 1.46-.073 1.883 0 1.869.03 3.124.087 3.796.044.51.494 1.474 1.322 2.89.885 1.46 1.873 2.03 2.265 2.03.348 0 .914-.716 1.728-2.176.755-1.386.755-2.145.87-2.613.436-1.664.219-2.715.219-4.248 0-.394-.044-1.007-.117-1.825-.072-.817-.116-1.43-.116-1.84 0-.276.16-.422.465-.422.755 0 1.873-.03 3.368-.088a94.106 94.106 0 0 1 3.369-.088c.377 0 .639.205.77.584.26.672.362 2.249.362 4.716m44.735 1.197c0 .584-.32.89-.944.89-.276 0-.697-.014-1.22-.058a40.953 40.953 0 0 0-1.553-.059c-1.22 0-1.757.993-2.164 1.446-.392.438-.668 2.044-.668 3.226 0 .657.015 1.635.03 2.949.014 1.314.029 2.306.029 2.949 0 .438.029 1.08.087 1.956.058.861.087 1.504.087 1.927 0 .365-.247.57-.726.613-.697.059-1.786.088-3.253.088-1.393 0-2.511-.044-3.354-.132-.493-.058-.726-.306-.726-.744 0-1.197.015-3.007.03-5.416.014-2.394.014-4.205.014-5.402 0-3.533-.32-7.664-.944-9.956a1.636 1.636 0 0 1-.043-.336c0-.219.116-.38.334-.452.813-.088 3.557.014 3.557.014 1.626-.014 3.528-.014 3.6-.014.262 0 .523-.073.828.832.16.452.654.423.654.423s.77.015 2.061-.452c1.467-.526 1.772-.862 3.122-.862.828 0 1.365.176 1.365.54 0 .439-.044 1.052-.13 1.855-.088.86-.146 1.299-.16 1.678 0 .438.014-.014.029.701.043.92.058 1.504.058 1.796" fill="#EE493A" fill-rule="nonzero"/>
</svg>
